<?xml version="1.0" encoding="UTF-8" standalone="no"?>
<!-- Created with Inkscape (http://www.inkscape.org/) -->

<svg
   xmlns:dc="http://purl.org/dc/elements/1.1/"
   xmlns:cc="http://creativecommons.org/ns#"
   xmlns:rdf="http://www.w3.org/1999/02/22-rdf-syntax-ns#"
   xmlns:svg="http://www.w3.org/2000/svg"
   xmlns="http://www.w3.org/2000/svg"
   xmlns:sodipodi="http://sodipodi.sourceforge.net/DTD/sodipodi-0.dtd"
   xmlns:inkscape="http://www.inkscape.org/namespaces/inkscape"
   width="51.516613mm"
   height="51.541168mm"
   viewBox="0 0 51.516613 51.541168"
   version="1.1"
   id="svg3630"
   inkscape:version="0.91+devel r14859"
   sodipodi:docname="drawing.svg">
  <defs
     id="defs3624" />
  <sodipodi:namedview
     id="base"
     pagecolor="#ffffff"
     bordercolor="#666666"
     borderopacity="1.0"
     inkscape:pageopacity="0.0"
     inkscape:pageshadow="2"
     inkscape:zoom="0.35"
     inkscape:cx="125.92566"
     inkscape:cy="68.829204"
     inkscape:document-units="mm"
     inkscape:current-layer="layer1"
     showgrid="false"
     inkscape:window-width="1366"
     inkscape:window-height="700"
     inkscape:window-x="0"
     inkscape:window-y="32"
     inkscape:window-maximized="1" />
  <metadata
     id="metadata3627">
    <rdf:RDF>
      <cc:Work
         rdf:about="">
        <dc:format>image/svg+xml</dc:format>
        <dc:type
           rdf:resource="http://purl.org/dc/dcmitype/StillImage" />
        <dc:title></dc:title>
      </cc:Work>
    </rdf:RDF>
  </metadata>
  <g
     inkscape:label="Layer 1"
     inkscape:groupmode="layer"
     id="layer1"
     transform="translate(-72.515502,-115.50323)">
    <g
       transform="matrix(0.26458333,0,0,0.26458333,-70.886591,-17.476188)"
       id="Layer_2"
       style="fill:#ffffff">
      <g
         id="XMLID_2_"
         style="fill:#ffffff">
        <g
           id="XMLID_3_"
           style="fill:#ffffff">
          <g
             id="XMLID_8_"
             style="fill:#ffffff">
            <path
               inkscape:connector-curvature="0"
               id="XMLID_16_"
               class="st1"
               d="m 589.4,669.6 c -25.3,-18.3 -39,-49.4 -35.1,-80.5 4,-31.4 25.7,-58.4 55.3,-69.5 7.1,-2.7 4,-14.1 -3.1,-11.4 -34,12.8 -59,42.8 -63.7,79.1 -4.7,36.1 11.4,71.3 40.7,92.5 6.1,4.5 12,-5.8 5.9,-10.2 z"
               style="fill:#ffffff" />
          </g>
          <g
             id="XMLID_4_"
             style="fill:#ffffff">
            <path
               inkscape:connector-curvature="0"
               id="XMLID_13_"
               class="st1"
               d="m 719.3,630.7 c -12.9,33 -44.7,54.5 -80,54.9 -7.6,0.1 -7.6,11.9 0,11.8 40.9,-0.4 76.6,-25.6 91.4,-63.6 2.7,-7 -8.7,-10.1 -11.4,-3.1 z"
               style="fill:#ffffff" />
          </g>
          <g
             id="XMLID_5_"
             style="fill:#ffffff">
            <path
               inkscape:connector-curvature="0"
               id="XMLID_15_"
               class="st1"
               d="m 639.3,514.4 c 47,0.5 85.1,38.5 85.6,85.6 0.1,7.6 11.9,7.6 11.8,0 -0.6,-53.5 -43.9,-96.9 -97.4,-97.4 -7.6,-0.1 -7.6,11.7 0,11.8 z"
               style="fill:#ffffff" />
          </g>
          <g
             id="XMLID_6_"
             style="fill:#ffffff">
            <path
               inkscape:connector-curvature="0"
               id="XMLID_14_"
               class="st1"
               d="m 639.3,658.3 c -34.8,-0.4 -62.8,-31.6 -57.8,-66.5 5.2,-36.2 43.5,-59.1 77.9,-46.6 23,8.4 37.8,30.6 38.2,54.8 0.1,7.6 11.9,7.6 11.8,0 -0.4,-24.8 -13.2,-48 -34.8,-60.6 -19.7,-11.5 -44.1,-12.5 -64.8,-3.1 -38.4,17.5 -52.6,67.5 -28.9,102.6 13.2,19.5 34.9,31 58.4,31.2 7.6,0.1 7.6,-11.7 0,-11.8 z"
               style="fill:#ffffff" />
          </g>
          <g
             id="XMLID_9_"
             style="fill:#ffffff">
            <path
               inkscape:connector-curvature="0"
               id="XMLID_12_"
               class="st1"
               d="m 639.3,630 c -13.4,-0.3 -25.4,-8.9 -28.9,-22 -4.3,-15.7 4.9,-31.6 20.1,-36.7 7.2,-2.4 4.1,-13.8 -3.1,-11.4 -20.9,6.9 -33.7,27.9 -28.8,49.7 4.3,19 21.6,31.8 40.7,32.3 7.6,0.1 7.6,-11.7 0,-11.9 z"
               style="fill:#ffffff" />
          </g>
          <g
             id="XMLID_7_"
             style="fill:#ffffff">
            <path
               inkscape:connector-curvature="0"
               id="XMLID_11_"
               class="st1"
               d="m 649.2,571.6 c 23,8.3 26.2,37.7 7.9,52.6 -5.9,4.8 2.5,13.1 8.4,8.4 25.8,-21.1 17.4,-61.3 -13.1,-72.4 -7.2,-2.6 -10.3,8.9 -3.2,11.4 z"
               style="fill:#ffffff" />
          </g>
          <g
             id="XMLID_10_"
             style="fill:#ffffff">
            <path
               inkscape:connector-curvature="0"
               id="XMLID_17_"
               class="st1"
               d="m 703.5,594.1 c -37.5,0 -75,0 -112.4,0 -5.3,0 -10.7,0 -16,0 -7.6,0 -7.6,11.8 0,11.8 37.5,0 75,0 112.4,0 5.3,0 10.7,0 16,0 7.6,0 7.6,-11.8 0,-11.8 z"
               style="fill:#ffffff" />
          </g>
        </g>
      </g>
    </g>
  </g>
</svg>
